<svg id="ebterf2zo7qm1" xmlns="http://www.w3.org/2000/svg" xmlns:xlink="http://www.w3.org/1999/xlink" viewBox="95 187 370 370" shape-rendering="geometricPrecision" text-rendering="geometricPrecision"><g id="ebterf2zo7qm2" transform="matrix(0.20000000000000 0 0 0.20000000000000 -9.40907166500024 516.47322499500058)"><path id="ebterf2zo7qm3" d="M452.452000,88.076000C472.852000,82.476000,492.452000,80.876000,508.452000,84.076000C496.852000,104.076000,473.252000,123.676000,443.252000,137.676000C422.452000,147.276000,401.652000,152.076000,383.252000,153.276000L380.452000,146.876000L452.452000,88.076000Z" fill="rgb(124,179,66)" stroke="none" stroke-width="1"/><path id="ebterf2zo7qm4" d="M382.852000,156.876000C380.852000,156.876000,378.852000,155.276000,378.852000,152.876000C378.852000,150.476000,380.452000,148.876000,382.852000,148.876000C401.652000,148.076000,422.052000,142.876000,441.652000,133.676000C467.652000,121.676000,489.252000,104.876000,501.652000,86.876000C487.252000,85.276000,470.452000,87.276000,453.652000,91.676000C451.652000,92.076000,449.252000,90.876000,448.852000,88.876000C448.452000,86.876000,449.652000,84.476000,451.652000,84.076000C472.452000,78.476000,492.452000,76.876000,509.252000,79.676000C510.452000,80.076000,511.652000,80.876000,512.052000,82.076000C512.452000,83.276000,512.452000,84.476000,512.052000,85.676000C499.252000,107.276000,474.852000,127.276000,445.252000,140.876000C424.052000,150.476000,402.852000,155.676000,382.852000,156.876000L382.852000,156.876000Z" fill="rgb(0,0,0)" stroke="none" stroke-width="1"/><path id="ebterf2zo7qm5" d="M428.452000,4.076000C431.252000,20.076000,430.052000,39.276000,424.052000,60.076000L368.452000,134.476000L361.252000,129.276000C362.052000,110.876000,365.252000,90.076000,374.452000,69.276000C388.852000,39.276000,408.852000,16.076000,428.452000,4.076000Z" fill="rgb(124,179,66)" stroke="none" stroke-width="1"/><path id="ebterf2zo7qm6" d="M476.852000,35.676000C472.852000,58.476000,458.052000,85.276000,434.452000,108.476000C416.452000,126.476000,396.452000,139.276000,378.052000,146.476000L364.052000,123.676000C370.852000,112.876000,393.652000,88.076000,403.652000,78.076000C427.252000,54.476000,454.052000,39.676000,476.852000,35.676000Z" fill="rgb(124,179,66)" stroke="none" stroke-width="1"/><path id="ebterf2zo7qm7" d="M359.652000,133.276000C359.652000,133.276000,359.252000,133.276000,359.652000,133.276000C357.252000,133.276000,355.652000,131.276000,355.652000,129.276000C356.452000,109.676000,362.052000,88.476000,371.652000,67.676000C385.252000,37.676000,405.252000,13.276000,426.852000,0.876000C428.052000,0.076000,429.252000,0.076000,430.452000,0.876000C431.652000,1.276000,432.452000,2.476000,432.852000,3.676000C436.052000,20.476000,434.452000,40.476000,428.452000,61.276000C428.052000,63.276000,425.652000,64.476000,423.652000,64.076000C421.652000,63.676000,420.452000,61.276000,420.852000,59.276000C425.652000,42.076000,427.252000,25.276000,425.652000,11.276000C407.652000,23.676000,390.852000,45.276000,378.852000,71.276000C370.052000,90.876000,364.852000,111.276000,363.652000,129.676000C363.252000,131.676000,361.652000,133.276000,359.652000,133.276000Z" fill="rgb(0,0,0)" stroke="none" stroke-width="1"/><path id="ebterf2zo7qm8" d="M378.052000,150.476000C376.452000,150.476000,374.852000,149.276000,374.452000,147.676000C373.652000,145.676000,374.852000,143.276000,376.852000,142.476000C395.652000,135.676000,415.252000,122.476000,432.052000,105.676000C452.052000,85.676000,466.452000,62.076000,472.052000,40.876000C450.452000,46.476000,427.252000,60.476000,407.252000,80.876000C397.652000,90.476000,389.652000,100.476000,382.852000,111.276000C381.652000,113.276000,379.252000,113.676000,377.252000,112.476000C375.252000,111.276000,374.852000,108.876000,376.052000,106.876000C383.252000,95.676000,391.652000,84.876000,401.652000,74.876000C424.852000,51.676000,452.052000,35.676000,476.852000,31.276000C478.052000,30.876000,479.652000,31.276000,480.452000,32.476000C481.252000,33.276000,481.652000,34.876000,481.652000,36.076000C477.252000,60.476000,461.252000,88.076000,438.052000,111.276000C420.452000,128.876000,399.652000,142.876000,380.052000,150.076000C378.852000,150.076000,378.452000,150.476000,378.052000,150.476000Z" fill="rgb(0,0,0)" stroke="none" stroke-width="1"/><path id="ebterf2zo7qm9" d="M4.852000,480.076000C37.652000,392.076000,218.052000,169.276000,247.652000,139.676000C282.052000,105.276000,337.652000,105.276000,372.052000,139.676000C406.452000,174.076000,406.452000,229.676000,372.052000,264.076000C352.452000,283.676000,249.652000,368.476000,156.452000,433.276000C108.052000,467.276000,62.052000,495.676000,32.052000,506.876000C24.852000,508.876000,16.452000,506.876000,10.852000,501.276000C4.852000,495.676000,2.852000,487.676000,4.852000,480.076000Z" fill="rgb(251,140,0)" stroke="none" stroke-width="1"/><path id="ebterf2zo7qm10" d="M26.052000,512.076000C19.252000,512.076000,12.452000,509.276000,7.652000,504.476000C1.252000,498.076000,-1.548000,488.476000,0.852000,479.276000L0.852000,478.876000C34.052000,389.676000,214.852000,167.276000,244.852000,137.276000C280.852000,101.276000,338.852000,101.276000,374.852000,137.276000C392.052000,154.476000,401.652000,177.676000,401.652000,202.076000C401.652000,226.476000,392.052000,249.676000,374.852000,266.876000C355.652000,286.076000,254.052000,370.076000,158.452000,436.476000C102.852000,475.276000,60.452000,500.476000,32.852000,510.476000C30.852000,511.676000,28.452000,512.076000,26.052000,512.076000ZM8.852000,481.276000C7.252000,487.676000,9.252000,494.076000,13.652000,498.476000C18.052000,502.876000,24.852000,504.876000,31.252000,503.276000C57.652000,493.276000,99.252000,468.876000,154.452000,430.076000C248.052000,364.876000,351.252000,279.676000,369.652000,261.276000C385.652000,245.276000,394.052000,224.476000,394.052000,202.076000C394.052000,179.676000,385.252000,158.476000,369.652000,142.876000C336.852000,110.076000,283.652000,110.076000,250.852000,142.876000C220.852000,172.476000,41.652000,392.876000,8.852000,481.276000Z" fill="rgb(0,0,0)" stroke="none" stroke-width="1"/><path id="ebterf2zo7qm11" d="M373.652000,260.876000C372.452000,260.876000,371.652000,260.476000,370.852000,259.676000L334.052000,222.876000C332.452000,221.276000,332.452000,218.876000,334.052000,217.276000C335.652000,215.676000,338.052000,215.676000,339.652000,217.276000L376.452000,254.076000C378.052000,255.676000,378.052000,258.076000,376.452000,259.676000C376.052000,260.476000,374.852000,260.876000,373.652000,260.876000Z" fill="rgb(0,0,0)" stroke="none" stroke-width="1"/><path id="ebterf2zo7qm12" d="M238.052000,181.676000C236.852000,181.676000,236.052000,181.276000,235.252000,180.476000L224.052000,169.276000C222.452000,167.676000,222.452000,165.276000,224.052000,163.676000C225.652000,162.076000,228.052000,162.076000,229.652000,163.676000L240.852000,174.876000C242.452000,176.476000,242.452000,178.876000,240.852000,180.476000C240.052000,181.276000,239.252000,181.676000,238.052000,181.676000Z" fill="rgb(0,0,0)" stroke="none" stroke-width="1"/><path id="ebterf2zo7qm13" d="M320.052000,263.676000C318.852000,263.676000,318.052000,263.276000,317.252000,262.476000L280.452000,225.676000C278.852000,224.076000,278.852000,221.676000,280.452000,220.076000C282.052000,218.476000,284.452000,218.476000,286.052000,220.076000L322.852000,256.876000C324.452000,258.476000,324.452000,260.876000,322.852000,262.476000C322.052000,263.276000,321.252000,263.676000,320.052000,263.676000Z" fill="rgb(0,0,0)" stroke="none" stroke-width="1"/><path id="ebterf2zo7qm14" d="M232.452000,232.476000C231.252000,232.476000,230.452000,232.076000,229.652000,231.276000L198.452000,200.076000C196.852000,198.476000,196.852000,196.076000,198.452000,194.476000C200.052000,192.876000,202.452000,192.876000,204.052000,194.476000L235.252000,225.676000C236.852000,227.276000,236.852000,229.676000,235.252000,231.276000C234.452000,232.076000,233.252000,232.476000,232.452000,232.476000Z" fill="rgb(0,0,0)" stroke="none" stroke-width="1"/><path id="ebterf2zo7qm15" d="M297.652000,297.276000C296.452000,297.276000,295.652000,296.876000,294.852000,296.076000L272.052000,273.276000C270.452000,271.676000,270.452000,269.276000,272.052000,267.676000C273.652000,266.076000,276.052000,266.076000,277.652000,267.676000L300.452000,290.476000C302.052000,292.076000,302.052000,294.476000,300.452000,296.076000C299.652000,296.876000,298.452000,297.276000,297.652000,297.276000Z" fill="rgb(0,0,0)" stroke="none" stroke-width="1"/><path id="ebterf2zo7qm16" d="M283.252000,340.076000C282.052000,340.076000,281.252000,339.676000,280.452000,338.876000L232.452000,290.876000C230.852000,289.276000,230.852000,286.876000,232.452000,285.276000C234.052000,283.676000,236.452000,283.676000,238.052000,285.276000L286.052000,333.276000C287.652000,334.876000,287.652000,337.276000,286.052000,338.876000C285.252000,339.676000,284.452000,340.076000,283.252000,340.076000Z" fill="rgb(0,0,0)" stroke="none" stroke-width="1"/><path id="ebterf2zo7qm17" d="M195.652000,308.876000C194.452000,308.876000,193.652000,308.476000,192.852000,307.676000L147.652000,262.476000C146.052000,260.876000,146.052000,258.476000,147.652000,256.876000C149.252000,255.276000,151.652000,255.276000,153.252000,256.876000L198.452000,302.076000C200.052000,303.676000,200.052000,306.076000,198.452000,307.676000C197.652000,308.476000,196.452000,308.876000,195.652000,308.876000Z" fill="rgb(0,0,0)" stroke="none" stroke-width="1"/><path id="ebterf2zo7qm18" d="M187.252000,243.676000C186.052000,243.676000,185.252000,243.276000,184.452000,242.476000L173.252000,231.276000C171.652000,229.676000,171.652000,227.276000,173.252000,225.676000C174.852000,224.076000,177.252000,224.076000,178.852000,225.676000L190.052000,236.876000C191.652000,238.476000,191.652000,240.876000,190.052000,242.476000C189.252000,243.276000,188.052000,243.676000,187.252000,243.676000Z" fill="rgb(0,0,0)" stroke="none" stroke-width="1"/><path id="ebterf2zo7qm19" d="M218.452000,388.076000C217.252000,388.076000,216.452000,387.676000,215.652000,386.876000L190.052000,361.276000C188.452000,359.676000,188.452000,357.276000,190.052000,355.676000C191.652000,354.076000,194.052000,354.076000,195.652000,355.676000L221.252000,381.276000C222.852000,382.876000,222.852000,385.276000,221.252000,386.876000C220.452000,387.676000,219.252000,388.076000,218.452000,388.076000Z" fill="rgb(0,0,0)" stroke="none" stroke-width="1"/><path id="ebterf2zo7qm20" d="M153.252000,379.676000C152.052000,379.676000,151.252000,379.276000,150.452000,378.476000L116.452000,344.476000C114.852000,342.876000,114.852000,340.476000,116.452000,338.876000C118.052000,337.276000,120.452000,337.276000,122.052000,338.876000L156.052000,372.876000C157.652000,374.476000,157.652000,376.876000,156.052000,378.476000C155.252000,379.276000,154.052000,379.676000,153.252000,379.676000Z" fill="rgb(0,0,0)" stroke="none" stroke-width="1"/><path id="ebterf2zo7qm21" d="M156.452000,437.676000C155.252000,437.676000,154.452000,437.276000,153.652000,436.476000L125.652000,408.476000C124.052000,406.876000,124.052000,404.476000,125.652000,402.876000C127.252000,401.276000,129.652000,401.276000,131.252000,402.876000L159.252000,430.876000C160.852000,432.476000,160.852000,434.876000,159.252000,436.476000C158.452000,437.276000,157.652000,437.676000,156.452000,437.676000Z" fill="rgb(0,0,0)" stroke="none" stroke-width="1"/><path id="ebterf2zo7qm22" d="M88.852000,369.676000C87.652000,369.676000,86.852000,369.276000,86.052000,368.476000L77.652000,360.076000C76.052000,358.476000,76.052000,356.076000,77.652000,354.476000C79.252000,352.876000,81.652000,352.876000,83.252000,354.476000L91.652000,362.876000C93.252000,364.476000,93.252000,366.876000,91.652000,368.476000C90.852000,369.276000,89.652000,369.676000,88.852000,369.676000Z" fill="rgb(0,0,0)" stroke="none" stroke-width="1"/><path id="ebterf2zo7qm23" d="M119.252000,458.876000C118.052000,458.876000,117.252000,458.476000,116.452000,457.676000L105.252000,446.476000C103.652000,444.876000,103.652000,442.476000,105.252000,440.876000C106.852000,439.276000,109.252000,439.276000,110.852000,440.876000L122.052000,452.076000C123.652000,453.676000,123.652000,456.076000,122.052000,457.676000C121.252000,458.476000,120.452000,458.876000,119.252000,458.876000Z" fill="rgb(0,0,0)" stroke="none" stroke-width="1"/><path id="ebterf2zo7qm24" d="M65.652000,461.676000C64.452000,461.676000,63.652000,461.276000,62.852000,460.476000L31.652000,429.276000C30.052000,427.676000,30.052000,425.276000,31.652000,423.676000C33.252000,422.076000,35.652000,422.076000,37.252000,423.676000L68.452000,454.876000C70.052000,456.476000,70.052000,458.876000,68.452000,460.476000C67.652000,461.276000,66.452000,461.676000,65.652000,461.676000Z" fill="rgb(0,0,0)" stroke="none" stroke-width="1"/><path id="ebterf2zo7qm25" d="M382.852000,166.876000C374.852000,166.876000,365.252000,162.476000,357.652000,154.876000C347.252000,144.476000,343.252000,131.676000,346.852000,122.476000C347.652000,120.476000,350.052000,119.276000,352.052000,120.476000C354.052000,121.276000,355.252000,123.676000,354.052000,125.676000C352.052000,130.876000,354.452000,140.476000,363.252000,149.276000C370.452000,156.476000,380.052000,160.476000,386.052000,158.476000C388.052000,157.676000,390.452000,159.276000,390.852000,161.276000C391.652000,163.276000,390.052000,165.676000,388.052000,166.076000C386.452000,166.876000,384.452000,166.876000,382.852000,166.876000Z" fill="rgb(0,0,0)" stroke="none" stroke-width="1"/><path id="ebterf2zo7qm26" d="M350.052000,120.076000L386.852000,158.476000C379.652000,160.476000,368.852000,156.876000,360.052000,148.076000C350.852000,138.876000,347.252000,127.276000,350.052000,120.076000Z" fill="rgb(124,179,66)" stroke="none" stroke-width="1"/></g><g id="ebterf2zo7qm27" transform="matrix(0.20000000000000 0 0 0.20000000000000 539.91735500000004 416.95041300000003)"><path id="ebterf2zo7qm28" d="M238.608000,59.941000L232.989000,7.500000L175.992000,7.500000L170.372000,59.941000C167.111000,90.370000,147.857000,116.718000,119.895000,129.156000C68.721000,151.918000,34.249000,194.693000,34.249000,243.716000C34.249000,316.614000,110.469000,375.709000,204.490000,375.709000C298.511000,375.709000,374.731000,316.614000,374.731000,243.716000C374.731000,194.693000,340.259000,151.918000,289.085000,129.156000C261.123000,116.718000,241.869000,90.370000,238.608000,59.941000Z" fill="rgb(247,178,57)" stroke="none" stroke-width="1"/><path id="ebterf2zo7qm29" d="M204.489000,375.709000C110.469000,375.709000,34.249000,316.609000,34.249000,243.719000C34.249000,194.689000,68.719000,151.919000,119.889000,129.159000C147.849000,116.719000,167.109000,90.369000,170.369000,59.939000L175.989000,7.499000L191.409000,7.499000L188.839000,59.939000C187.339000,90.369000,178.509000,116.719000,165.679000,129.159000C142.209000,151.919000,126.389000,194.689000,126.389000,243.719000C126.388000,316.609000,161.359000,375.709000,204.489000,375.709000Z" fill="rgb(224,155,45)" stroke="none" stroke-width="1"/><path id="ebterf2zo7qm30" d="M328.897000,309.251000C327.168000,309.251000,325.430000,308.656000,324.015000,307.441000C320.872000,304.742000,320.512000,300.007000,323.210000,296.865000C336.962000,280.849000,344.231000,262.470000,344.231000,243.715000C344.231000,229.220000,339.652000,214.491000,330.990000,201.119000C328.738000,197.642000,329.731000,192.999000,333.208000,190.746000C336.683000,188.495000,341.328000,189.487000,343.580000,192.963000C353.819000,208.770000,359.231000,226.319000,359.231000,243.714000C359.231000,266.104000,350.710000,287.862000,334.591000,306.636000C333.108000,308.365000,331.009000,309.251000,328.897000,309.251000Z" fill="rgb(255,255,255)" stroke="none" stroke-width="1"/><path id="ebterf2zo7qm31" d="M235.226000,121.172000C232.878000,121.172000,230.567000,120.073000,229.104000,118.014000C220.657000,106.118000,214.589000,92.946000,211.069000,78.866000C210.065000,74.847000,212.507000,70.775000,216.526000,69.771000C220.544000,68.768000,224.617000,71.209000,225.622000,75.228000C228.687000,87.489000,233.974000,98.963000,241.335000,109.330000C243.733000,112.707000,242.939000,117.390000,239.562000,119.788000C238.243000,120.722000,236.727000,121.172000,235.226000,121.172000Z" fill="rgb(255,255,255)" stroke="none" stroke-width="1"/><path id="ebterf2zo7qm32" d="M214.113000,54.800000C210.329000,54.800000,207.077000,51.946000,206.665000,48.099000L204.864000,31.300000C204.423000,27.182000,207.403000,23.485000,211.521000,23.043000C215.647000,22.602000,219.336000,25.583000,219.778000,29.701000L221.579000,46.500000C222.020000,50.618000,219.040000,54.315000,214.922000,54.757000C214.650000,54.785000,214.380000,54.800000,214.113000,54.800000Z" fill="rgb(255,255,255)" stroke="none" stroke-width="1"/><circle id="ebterf2zo7qm33" r="7.500000" transform="matrix(1 0 0 1 321.80799999999999 177.83000000000001)" fill="rgb(255,255,255)" stroke="none" stroke-width="1"/><g id="ebterf2zo7qm34"><path id="ebterf2zo7qm35" d="M292.133000,122.303000C266.680000,110.981000,249.028000,86.779000,246.066000,59.142000L240.446000,6.701000C240.037000,2.890000,236.821000,0,232.988000,0L175.991000,0C172.158000,0,168.942000,2.890000,168.534000,6.701000L162.915000,59.142000C159.952000,86.780000,142.300000,110.982000,116.847000,122.304000C61.273000,147.023000,26.749000,193.545000,26.749000,243.716000C26.749000,281.343000,45.488000,316.594000,79.516000,342.977000C109.041000,365.868000,147.069000,379.678000,187.980000,382.613000L183.277000,387.316000C180.348000,390.245000,180.348000,394.994000,183.277000,397.922000C186.207000,400.851000,190.955000,400.851000,193.884000,397.922000L196.989000,394.816000L196.989000,401.481000C196.989000,405.623000,200.346000,408.981000,204.489000,408.981000C208.632000,408.981000,211.989000,405.623000,211.989000,401.481000L211.989000,394.816000L215.094000,397.922000C216.559000,399.386000,218.479000,400.119000,220.398000,400.119000C222.317000,400.119000,224.237000,399.387000,225.702000,397.922000C228.631000,394.993000,228.631000,390.244000,225.702000,387.316000L221,382.612000C261.912000,379.677000,299.940000,365.867000,329.464000,342.976000C363.491000,316.593000,382.231000,281.342000,382.231000,243.715000C382.231000,193.545000,347.708000,147.022000,292.133000,122.303000ZM204.490000,368.209000C114.755000,368.209000,41.749000,312.361000,41.749000,243.715000C41.749000,199.555000,72.860000,158.284000,122.942000,136.008000C153.267000,122.520000,174.298000,93.679000,177.829000,60.740000L182.730000,15L226.249000,15L231.151000,60.740000L231.151000,60.740000C234.680000,93.679000,255.712000,122.520000,286.037000,136.008000C336.119000,158.284000,367.231000,199.555000,367.231000,243.715000C367.231000,312.361000,294.226000,368.209000,204.490000,368.209000Z" fill="rgb(51,51,51)" stroke="none" stroke-width="1"/><path id="ebterf2zo7qm36" d="M129.956000,144.790000C126.797000,142.112000,122.064000,142.503000,119.386000,145.663000C97.127000,171.928000,84.868000,206.748000,84.868000,243.712000C84.868000,273.076000,92.587000,301.153000,107.188000,324.909000C108.604000,327.213000,111.065000,328.483000,113.584000,328.483000C114.924000,328.483000,116.280000,328.124000,117.505000,327.372000C121.033000,325.203000,122.136000,320.584000,119.967000,317.055000C106.818000,295.663000,99.867000,270.302000,99.867000,243.712000C99.867000,210.296000,110.862000,178.920000,130.828000,155.361000C133.507000,152.201000,133.116000,147.468000,129.956000,144.790000Z" fill="rgb(51,51,51)" stroke="none" stroke-width="1"/><path id="ebterf2zo7qm37" d="M279.020000,144.790000C275.860000,147.468000,275.469000,152.201000,278.147000,155.361000C298.113000,178.919000,309.108000,210.296000,309.108000,243.712000C309.108000,270.301000,302.158000,295.663000,289.008000,317.055000C286.839000,320.584000,287.942000,325.202000,291.470000,327.372000C292.696000,328.125000,294.051000,328.483000,295.391000,328.483000C297.911000,328.483000,300.371000,327.213000,301.787000,324.909000C316.389000,301.153000,324.107000,273.076000,324.107000,243.712000C324.107000,206.749000,311.848000,171.928000,289.589000,145.663000C286.912000,142.503000,282.180000,142.112000,279.020000,144.790000Z" fill="rgb(51,51,51)" stroke="none" stroke-width="1"/><path id="ebterf2zo7qm38" d="M224.712000,128.156000C220.937000,129.860000,219.258000,134.302000,220.962000,138.078000C231.691000,161.843000,238.098000,201.332000,238.098000,243.711000C238.098000,278.453000,233.895000,310.956000,226.263000,335.232000C225.021000,339.183000,227.218000,343.394000,231.169000,344.636000C231.917000,344.871000,232.675000,344.983000,233.420000,344.983000C236.608000,344.983000,239.566000,342.933000,240.572000,339.730000C248.649000,314.038000,253.097000,279.937000,253.097000,243.711000C253.097000,199.310000,246.195000,157.513000,234.633000,131.905000C232.929000,128.131000,228.487000,126.450000,224.712000,128.156000Z" fill="rgb(51,51,51)" stroke="none" stroke-width="1"/><path id="ebterf2zo7qm39" d="M184.276000,128.157000C180.498000,126.449000,176.058000,128.129000,174.352000,131.903000C162.790000,157.489000,155.887000,199.286000,155.887000,243.711000C155.887000,279.939000,160.335000,314.039000,168.413000,339.731000C169.420000,342.934000,172.377000,344.983000,175.565000,344.983000C176.310000,344.983000,177.068000,344.871000,177.816000,344.636000C181.768000,343.394000,183.964000,339.183000,182.721000,335.232000C175.089000,310.957000,170.886000,278.454000,170.886000,243.711000C170.886000,201.310000,177.291000,161.822000,188.021000,138.080000C189.728000,134.306000,188.051000,129.863000,184.276000,128.157000Z" fill="rgb(51,51,51)" stroke="none" stroke-width="1"/></g></g><g id="ebterf2zo7qm40" transform="matrix(0.20000000000000 0 0 0.20000000000000 -12.29734300000000 481.66989800000005)"><path id="ebterf2zo7qm41" d="M144.202000,421.569000L320.268000,245.503000L266.529000,191.764000L90.463000,367.829000C72.109000,349.475000,42.350000,349.475000,23.997000,367.829000C5.643000,386.183000,5.643000,415.942000,23.997000,434.295000C35.043000,445.341000,50.216000,449.728000,64.551000,447.480000C62.302000,461.815000,66.691000,476.988000,77.736000,488.034000C96.090000,506.388000,125.849000,506.388000,144.202000,488.034000C162.557000,469.680000,162.557000,439.923000,144.202000,421.569000Z" fill="rgb(189,206,212)" stroke="none" stroke-width="1"/><path id="ebterf2zo7qm42" d="M465.221000,223.583000C416.407000,272.397000,260.189000,349.471000,211.375000,300.656000C162.561000,251.841000,239.634000,95.625000,288.449000,46.810000C337.264000,-2.005000,416.407000,-2.004000,465.222000,46.810000C514.036000,95.625000,514.036000,174.768000,465.221000,223.583000Z" fill="rgb(255,119,49)" stroke="none" stroke-width="1"/><path id="ebterf2zo7qm43" d="M472.434000,39.598000C446.898000,14.063000,412.948000,0,376.835000,0C340.722000,0,306.772000,14.063000,281.237000,39.598000C254.436000,66.399000,222.573000,120.082000,203.755000,170.145000C192.937000,198.924000,186.887000,224.697000,185.775000,246.750000C185.575000,250.707000,185.558000,254.509000,185.682000,258.187000L89.827000,354.043000C80.326000,347.427000,69.052000,343.865000,57.231000,343.865000C41.953000,343.865000,27.589000,349.814000,16.786000,360.618000C5.982000,371.421000,0.031000,385.785000,0.031000,401.062000C0.031000,416.340000,5.980000,430.704000,16.784000,441.508000C26.745000,451.469000,40.036000,457.314000,53.889000,458.142000C54.718000,471.994000,60.563000,485.286000,70.523000,495.247000C81.327000,506.051000,95.691000,512,110.969000,512C126.246000,512,140.611000,506.051000,151.414000,495.247000C162.218000,484.444000,168.167000,470.080000,168.167000,454.802000C168.167000,442.981000,164.604000,431.707000,157.989000,422.206000L253.826000,326.370000C255.240000,326.418000,256.674000,326.442000,258.129000,326.442000C260.461000,326.442000,262.846000,326.381000,265.283000,326.257000C287.336000,325.144000,313.110000,319.095000,341.888000,308.277000C391.950000,289.458000,445.633000,257.597000,472.435000,230.795000L472.435000,230.795000C525.147000,178.082000,525.147000,92.311000,472.434000,39.598000ZM136.989000,414.357000C135.077000,416.269000,134.002000,418.864000,134.002000,421.569000C134.002000,424.274000,135.077000,426.869000,136.989000,428.781000C143.940000,435.731000,147.768000,444.972000,147.768000,454.802000C147.768000,464.632000,143.940000,473.872000,136.989000,480.823000C130.039000,487.774000,120.798000,491.602000,110.969000,491.602000C101.140000,491.602000,91.899000,487.774000,84.948000,480.823000C76.665000,472.540000,72.807000,460.667000,74.627000,449.062000C75.132000,445.842000,74.068000,442.574000,71.763000,440.269000C69.458000,437.965000,66.190000,436.902000,62.970000,437.405000C51.365000,439.224000,39.491000,435.367000,31.209000,427.084000C24.258000,420.133000,20.430000,410.893000,20.430000,401.063000C20.430000,391.233000,24.258000,381.993000,31.209000,375.042000C38.159000,368.091000,47.400000,364.263000,57.230000,364.263000C67.060000,364.263000,76.300000,368.091000,83.251000,375.042000C85.163000,376.954000,87.758000,378.029000,90.463000,378.029000C93.168000,378.029000,95.763000,376.954000,97.675000,375.042000L189.620000,283.096000C192.706000,292.968000,197.551000,301.256000,204.163000,307.868000C210.775000,314.480000,219.066000,319.322000,228.939000,322.408000L136.989000,414.357000ZM458.009000,216.371000C433.439000,240.940000,381.584000,271.562000,334.709000,289.183000C279.106000,310.084000,236.780000,311.639000,218.587000,293.443000C200.393000,275.250000,201.946000,232.925000,222.847000,177.321000C240.468000,130.446000,271.090000,78.591000,295.660000,54.021000C317.342000,32.340000,346.171000,20.398000,376.834000,20.398000C407.497000,20.398000,436.326000,32.339000,458.008000,54.022000C502.769000,98.782000,502.769000,171.611000,458.009000,216.371000Z" fill="rgb(0,0,0)" stroke="none" stroke-width="1"/><path id="ebterf2zo7qm44" d="M175.880000,308.999000L144.768000,340.111000C140.785000,344.094000,140.785000,350.552000,144.768000,354.536000C146.760000,356.528000,149.370000,357.523000,151.980000,357.523000C154.590000,357.523000,157.201000,356.528000,159.192000,354.536000L190.304000,323.424000C194.287000,319.441000,194.287000,312.983000,190.304000,308.999000C186.321000,305.015000,179.863000,305.016000,175.880000,308.999000Z" fill="rgb(0,0,0)" stroke="none" stroke-width="1"/><path id="ebterf2zo7qm45" d="M124.263000,360.617000L118.607000,366.273000C114.624000,370.256000,114.623000,376.714000,118.607000,380.697000C120.599000,382.689000,123.209000,383.684000,125.819000,383.684000C128.429000,383.684000,131.039000,382.688000,133.031000,380.697000L138.687000,375.041000C142.670000,371.058000,142.671000,364.600000,138.687000,360.617000C134.704000,356.635000,128.247000,356.636000,124.263000,360.617000Z" fill="rgb(0,0,0)" stroke="none" stroke-width="1"/></g><g id="ebterf2zo7qm46" transform="matrix(0.50000000000000 0 0 0.50000000000000 310.53035900000009 86.38606443000032)"><g id="ebterf2zo7qm47"><path id="ebterf2zo7qm48" d="M150.261000,0C122.641000,0,100.174000,22.468000,100.174000,50.087000C100.174000,77.706000,122.641000,100.174000,150.261000,100.174000C177.880000,100.174000,200.348000,77.706000,200.348000,50.087000C200.348000,22.468000,177.880000,0,150.261000,0ZM150.261000,66.783000C141.041000,66.783000,133.565000,59.308000,133.565000,50.087000C133.565000,40.866000,141.040000,33.391000,150.261000,33.391000C159.482000,33.391000,166.957000,40.866000,166.957000,50.087000C166.957000,59.308000,159.481000,66.783000,150.261000,66.783000Z" transform="matrix(1 0 0 1 937.21007399999939 225.61842777000044)" fill="rgb(0,0,0)" fill-opacity="0" stroke="none" stroke-width="1"/></g></g><g id="ebterf2zo7qm49" transform="matrix(0.50000000000000 0 0 0.50000000000000 310.53034631000003 196.92303961000010)"><g id="ebterf2zo7qm50"><path id="ebterf2zo7qm51" d="M150.261000,0C122.641000,0,100.174000,22.468000,100.174000,50.087000C100.174000,77.706000,122.641000,100.174000,150.261000,100.174000C177.880000,100.174000,200.348000,77.706000,200.348000,50.087000C200.348000,22.468000,177.880000,0,150.261000,0ZM150.261000,66.783000C141.041000,66.783000,133.565000,59.308000,133.565000,50.087000C133.565000,40.866000,141.040000,33.391000,150.261000,33.391000C159.482000,33.391000,166.957000,40.866000,166.957000,50.087000C166.957000,59.308000,159.481000,66.783000,150.261000,66.783000Z" transform="matrix(1 0 0 1 913.54753403999985 -14.18883566999955)" fill="rgb(0,0,0)" stroke="none" stroke-width="1"/></g></g><g id="ebterf2zo7qm52" transform="matrix(0.50000000000000 0 0 0.50000000000000 1119.39786887999981 91.20464274000028)"><g id="ebterf2zo7qm53"><circle id="ebterf2zo7qm54" r="16.696000" transform="matrix(0.90844540308600 0 0 1 -500.46938108815635 212.99227114000064)" fill="rgb(0,0,0)" stroke="none" stroke-width="1"/></g></g><g id="ebterf2zo7qm55" transform="matrix(0.50000000000000 0 0 0.50000000000000 639.20607418999975 215.60899734000054)"><g id="ebterf2zo7qm56"><circle id="ebterf2zo7qm57" r="16.696000" transform="matrix(0.90844540308600 0 0 1 458.87941404184386 -40.52199543999997)" fill="rgb(0,0,0)" stroke="none" stroke-width="1"/></g></g><g id="ebterf2zo7qm58" transform="matrix(0.50000000000000 0 0 0.50000000000000 786.79874608999944 281.03180967500060)"><g id="ebterf2zo7qm59"><circle id="ebterf2zo7qm60" r="16.696000" transform="matrix(1 0 0 1 220.87781278999978 5.05164156999960)" fill="rgb(0,0,0)" stroke="none" stroke-width="1"/></g></g><g id="ebterf2zo7qm61" transform="matrix(0.50000000000000 0 0 0.50000000000000 801.04851261499937 101.80932586500057)"><g id="ebterf2zo7qm62"><circle id="ebterf2zo7qm63" r="16.696000" transform="matrix(1 0 0 1 195.94822681000039 193.53446274999979)" fill="rgb(0,0,0)" stroke="none" stroke-width="1"/></g></g><g id="ebterf2zo7qm64" transform="matrix(5.50000000000000 0 0 5.50000000000000 -1338.85454760800098 307.11557211599984)"><g id="ebterf2zo7qm65"><circle id="ebterf2zo7qm66" r="16.696000" transform="matrix(1 0 0 1 294.95699999999999 27.82600000000000)" fill="rgb(0,0,0)" stroke="none" stroke-width="1"/></g></g><g id="ebterf2zo7qm67" transform="matrix(0.50000000000000 0 0 0.50000000000000 155.67850494500004 307.17349624000030)"><g id="ebterf2zo7qm68" transform="matrix(1 0 0 1 3.25199236500022 -11.90199225000012)"><g id="ebterf2zo7qm69"><path id="ebterf2zo7qm70" d="M441.813000,166.957000L461.913000,166.957000C471.133000,166.957000,478.609000,159.482000,478.609000,150.261000C478.609000,141.040000,471.134000,133.565000,461.913000,133.565000L414.847000,133.565000L363.102000,133.565000L357.689000,133.565000L429.199000,62.056000C435.719000,55.536000,435.719000,44.965000,429.199000,38.445000C422.679000,31.925000,412.108000,31.925000,405.588000,38.445000L310.465000,133.565000L148.900000,133.565000L97.154000,133.565000L50.087000,133.565000C40.867000,133.565000,33.391000,141.040000,33.391000,150.261000C33.391000,159.482000,40.866000,166.957000,50.087000,166.957000L70.187000,166.957000C46.964000,202.079000,33.391000,244.131000,33.391000,289.392000C33.391000,335.355000,47.336000,378.055000,71.207000,413.521000C49.513000,419.018000,33.391000,438.510000,33.391000,461.914000C33.391000,489.576000,55.814000,512.001000,83.478000,512.001000C106.882000,512.001000,126.375000,495.880000,131.872000,474.185000C167.337000,498.055000,210.036000,512,256,512C301.962000,512,344.657000,498.056000,380.122000,474.189000C385.619000,495.882000,405.111000,512,428.514000,512C456.178000,512,478.601000,489.576000,478.601000,461.913000C478.601000,438.511000,462.484000,419.022000,440.792000,413.521000C464.663000,378.056000,478.609000,335.355000,478.609000,289.391000C478.609000,244.130000,465.035000,202.079000,441.813000,166.957000ZM83.478000,478.609000C74.271000,478.609000,66.782000,471.119000,66.782000,461.913000C66.782000,452.707000,74.271000,445.217000,83.478000,445.217000C92.684000,445.217000,100.174000,452.707000,100.174000,461.913000C100.174000,471.119000,92.684000,478.609000,83.478000,478.609000ZM445.206000,461.913000C445.206000,471.119000,437.716000,478.609000,428.510000,478.609000C419.304000,478.609000,411.814000,471.119000,411.814000,461.913000C411.814000,452.707000,419.304000,445.217000,428.510000,445.217000C437.717000,445.217000,445.206000,452.707000,445.206000,461.913000ZM256,478.609000C151.663000,478.609000,66.783000,393.728000,66.783000,289.392000C66.783000,242.693000,83.872000,199.977000,112.025000,166.957000L399.976000,166.957000C428.129000,199.977000,445.218000,242.693000,445.218000,289.392000C445.217000,393.728000,360.337000,478.609000,256,478.609000Z" fill="rgb(255,255,255)" stroke="none" stroke-width="1"/></g></g><g id="ebterf2zo7qm71"><g id="ebterf2zo7qm72"><path id="ebterf2zo7qm73" d="M395.734000,278.309000C386.299000,277.581000,378.718000,285.026000,378.310000,294.243000C375.495000,357.406000,323.789000,409.401000,260.592000,411.738000C251.380000,412.075000,244.185000,419.825000,244.526000,429.043000C244.858000,438.044000,252.265000,445.120000,261.200000,445.120000C261.407000,445.120000,261.619000,445.120000,261.830000,445.109000C342.265000,442.130000,408.085000,376.136000,411.667000,295.723000C412.075000,286.516000,404.945000,278.712000,395.734000,278.309000Z" fill="rgb(255,255,255)" stroke="none" stroke-width="1"/></g></g></g><script><![CDATA[!function(t,n){"object"==typeof exports&&"undefined"!=typeof module?module.exports=n():"function"==typeof define&&define.amd?define(n):(t=t||self).__SVGATOR_PLAYER__=n()}(this,(function(){"use strict";function t(n){return(t="function"==typeof Symbol&&"symbol"==typeof Symbol.iterator?function(t){return typeof t}:function(t){return t&&"function"==typeof Symbol&&t.constructor===Symbol&&t!==Symbol.prototype?"symbol":typeof t})(n)}function n(t,n){if(!(t instanceof n))throw new TypeError("Cannot call a class as a function")}function r(t,n){for(var r=0;r<n.length;r++){var e=n[r];e.enumerable=e.enumerable||!1,e.configurable=!0,"value"in e&&(e.writable=!0),Object.defineProperty(t,e.key,e)}}function e(t,n,e){return n&&r(t.prototype,n),e&&r(t,e),t}var i=Math.abs;function u(t){return t}function o(t,n,r){var e=1-r;return 3*r*e*(t*e+n*r)+r*r*r}function a(){var t=arguments.length>0&&void 0!==arguments[0]?arguments[0]:0,n=arguments.length>1&&void 0!==arguments[1]?arguments[1]:0,r=arguments.length>2&&void 0!==arguments[2]?arguments[2]:1,e=arguments.length>3&&void 0!==arguments[3]?arguments[3]:1;return t<0||t>1||r<0||r>1?null:i(t-n)<=1e-5&&i(r-e)<=1e-5?u:function(u){if(u<=0)return t>0?u*n/t:0===n&&r>0?u*e/r:0;if(u>=1)return r<1?1+(u-1)*(e-1)/(r-1):1===r&&t<1?1+(u-1)*(n-1)/(t-1):1;for(var a,l=0,f=1;l<f;){var s=o(t,r,a=(l+f)/2);if(i(u-s)<1e-5)break;s<u?l=a:f=a}return o(n,e,a)}}function l(){return 1}function f(t){return 1===t?1:0}function s(){var t=arguments.length>0&&void 0!==arguments[0]?arguments[0]:1,n=arguments.length>1&&void 0!==arguments[1]?arguments[1]:0;if(1===t){if(0===n)return f;if(1===n)return l}var r=1/t;return function(t){return t>=1?1:(t+=n*r)-t%r}}function c(t){var n=arguments.length>1&&void 0!==arguments[1]?arguments[1]:2;if(Number.isInteger(t))return t;var r=Math.pow(10,n);return Math.round(t*r)/r}var v=Math.PI/180;function h(t,n,r){return t>=.5?r:n}function y(t,n,r){return 0===t||n===r?n:t*(r-n)+n}function d(t,n,r){var e=y(t,n,r);return e<=0?0:e}function g(t,n,r){return 0===t?n:1===t?r:{x:y(t,n.x,r.x),y:y(t,n.y,r.y)}}function m(t,n,r){return 0===t?n:1===t?r:{x:d(t,n.x,r.x),y:d(t,n.y,r.y)}}function p(t,n,r){var e=function(t,n,r){return Math.round(y(t,n,r))}(t,n,r);return e<=0?0:e>=255?255:e}function b(t,n,r){return 0===t?n:1===t?r:{r:p(t,n.r,r.r),g:p(t,n.g,r.g),b:p(t,n.b,r.b),a:y(t,null==n.a?1:n.a,null==r.a?1:r.a)}}function w(t,n,r){if(0===t)return n;if(1===t)return r;var e=n.length;if(e!==r.length)return h(t,n,r);for(var i=[],u=0;u<e;u++)i.push(b(t,n[u],r[u]));return i}function A(t,n,r){var e=n.length;if(e!==r.length)return h(t,n,r);for(var i=new Array(e),u=0;u<e;u++)i[u]=y(t,n[u],r[u]);return i}function x(t,n){for(var r=[],e=0;e<t;e++)r.push(n);return r}function k(t,n){if(--n<=0)return t;var r=(t=Object.assign([],t)).length;do{for(var e=0;e<r;e++)t.push(t[e])}while(--n>0);return t}var S=/\.0+$/g;function _(t){return Number.isInteger(t)?t+"":t.toFixed(6).replace(S,"")}function M(t){var n=arguments.length>1&&void 0!==arguments[1]?arguments[1]:" ";return t&&t.length?t.map(_).join(n):""}function I(t){return _(t.x)+","+_(t.y)}function E(t){return t?null==t.a||t.a>=1?"rgb("+t.r+","+t.g+","+t.b+")":"rgba("+t.r+","+t.g+","+t.b+","+t.a+")":"transparent"}var F={f:null,i:m,u:function(t,n){return function(r){var e=n(r);t.setAttribute("rx",_(e.x)),t.setAttribute("ry",_(e.y))}}},B={f:null,i:function(t,n,r){return 0===t?n:1===t?r:{width:d(t,n.width,r.width),height:d(t,n.height,r.height)}},u:function(t,n){return function(r){var e=n(r);t.setAttribute("width",_(e.width)),t.setAttribute("height",_(e.height))}}},j=Math.sin,q=Math.cos,P=Math.acos,O=Math.asin,z=Math.tan,L=Math.atan2,C=Math.PI/180,R=180/Math.PI,T=Math.sqrt,V=function(){function t(){var r=arguments.length>0&&void 0!==arguments[0]?arguments[0]:1,e=arguments.length>1&&void 0!==arguments[1]?arguments[1]:0,i=arguments.length>2&&void 0!==arguments[2]?arguments[2]:0,u=arguments.length>3&&void 0!==arguments[3]?arguments[3]:1,o=arguments.length>4&&void 0!==arguments[4]?arguments[4]:0,a=arguments.length>5&&void 0!==arguments[5]?arguments[5]:0;n(this,t),this.m=[r,e,i,u,o,a],this.i=null,this.w=null,this.s=null}return e(t,[{key:"point",value:function(t,n){var r=this.m;return{x:r[0]*t+r[2]*n+r[4],y:r[1]*t+r[3]*n+r[5]}}},{key:"translateSelf",value:function(){var t=arguments.length>0&&void 0!==arguments[0]?arguments[0]:0,n=arguments.length>1&&void 0!==arguments[1]?arguments[1]:0;if(!t&&!n)return this;var r=this.m;return r[4]+=r[0]*t+r[2]*n,r[5]+=r[1]*t+r[3]*n,this.w=this.s=this.i=null,this}},{key:"rotateSelf",value:function(){var t=arguments.length>0&&void 0!==arguments[0]?arguments[0]:0;if(t%=360){var n=j(t*=C),r=q(t),e=this.m,i=e[0],u=e[1];e[0]=i*r+e[2]*n,e[1]=u*r+e[3]*n,e[2]=e[2]*r-i*n,e[3]=e[3]*r-u*n,this.w=this.s=this.i=null}return this}},{key:"scaleSelf",value:function(){var t=arguments.length>0&&void 0!==arguments[0]?arguments[0]:1,n=arguments.length>1&&void 0!==arguments[1]?arguments[1]:1;if(1!==t||1!==n){var r=this.m;r[0]*=t,r[1]*=t,r[2]*=n,r[3]*=n,this.w=this.s=this.i=null}return this}},{key:"skewSelf",value:function(t,n){if(n%=360,(t%=360)||n){var r=this.m,e=r[0],i=r[1],u=r[2],o=r[3];t&&(t=z(t*C),r[2]+=e*t,r[3]+=i*t),n&&(n=z(n*C),r[0]+=u*n,r[1]+=o*n),this.w=this.s=this.i=null}return this}},{key:"resetSelf",value:function(){var t=arguments.length>0&&void 0!==arguments[0]?arguments[0]:1,n=arguments.length>1&&void 0!==arguments[1]?arguments[1]:0,r=arguments.length>2&&void 0!==arguments[2]?arguments[2]:0,e=arguments.length>3&&void 0!==arguments[3]?arguments[3]:1,i=arguments.length>4&&void 0!==arguments[4]?arguments[4]:0,u=arguments.length>5&&void 0!==arguments[5]?arguments[5]:0,o=this.m;return o[0]=t,o[1]=n,o[2]=r,o[3]=e,o[4]=i,o[5]=u,this.w=this.s=this.i=null,this}},{key:"recomposeSelf",value:function(){var t=arguments.length>0&&void 0!==arguments[0]?arguments[0]:null,n=arguments.length>1&&void 0!==arguments[1]?arguments[1]:null,r=arguments.length>2&&void 0!==arguments[2]?arguments[2]:null,e=arguments.length>3&&void 0!==arguments[3]?arguments[3]:null,i=arguments.length>4&&void 0!==arguments[4]?arguments[4]:null;return this.isIdentity||this.resetSelf(),t&&(t.x||t.y)&&this.translateSelf(t.x,t.y),n&&this.rotateSelf(n),r&&(r.x&&this.skewSelf(r.x,0),r.y&&this.skewSelf(0,r.y)),!e||1===e.x&&1===e.y||this.scaleSelf(e.x,e.y),i&&(i.x||i.y)&&this.translateSelf(i.x,i.y),this}},{key:"decompose",value:function(){var t=arguments.length>0&&void 0!==arguments[0]?arguments[0]:0,n=arguments.length>1&&void 0!==arguments[1]?arguments[1]:0,r=this.m,e=r[0]*r[0]+r[1]*r[1],i=[[r[0],r[1]],[r[2],r[3]]],u=T(e);if(0===u)return{origin:{x:r[4],y:r[5]},translate:{x:t,y:n},scale:{x:0,y:0},skew:{x:0,y:0},rotate:0};i[0][0]/=u,i[0][1]/=u;var o=r[0]*r[3]-r[1]*r[2]<0;o&&(u=-u);var a=i[0][0]*i[1][0]+i[0][1]*i[1][1];i[1][0]-=i[0][0]*a,i[1][1]-=i[0][1]*a;var l=T(i[1][0]*i[1][0]+i[1][1]*i[1][1]);if(0===l)return{origin:{x:r[4],y:r[5]},translate:{x:t,y:n},scale:{x:u,y:0},skew:{x:0,y:0},rotate:0};i[1][0]/=l,i[1][1]/=l,a/=l;var f=0;return i[1][1]<0?(f=P(i[1][1])*R,i[0][1]<0&&(f=360-f)):f=O(i[0][1])*R,o&&(f=-f),a=L(a,T(i[0][0]*i[0][0]+i[0][1]*i[0][1]))*R,{origin:{x:r[4],y:r[5]},translate:{x:t,y:n},scale:{x:u,y:l},skew:{x:a,y:0},rotate:f}}},{key:"toString",value:function(){return null===this.s&&(this.s="matrix("+this.m.map(N).join(" ")+")"),this.s}},{key:"determinant",get:function(){var t=this.m;return t[0]*t[3]-t[1]*t[2]}},{key:"isIdentity",get:function(){if(null===this.i){var t=this.m;this.i=1===t[0]&&0===t[1]&&0===t[2]&&1===t[3]&&0===t[4]&&0===t[5]}return this.i}}]),t}(),D=/\.0+$/;function N(t){return Number.isInteger(t)?t:t.toFixed(14).replace(D,"")}Object.freeze({M:2,L:2,Z:0,H:1,V:1,C:6,Q:4,T:2,S:4,A:7});function G(t,n,r){return t+(n-t)*r}function $(t,n,r){var e=arguments.length>3&&void 0!==arguments[3]&&arguments[3],i={x:G(t.x,n.x,r),y:G(t.y,n.y,r)};return e&&(i.a=H(t,n)),i}function H(t,n){return Math.atan2(n.y-t.y,n.x-t.x)}function Q(t,n,r,e){var i=1-e;return i*i*t+2*i*e*n+e*e*r}function U(t,n,r,e){return 2*(1-e)*(n-t)+2*e*(r-n)}function Y(t,n,r,e){var i=arguments.length>4&&void 0!==arguments[4]&&arguments[4],u={x:Q(t.x,n.x,r.x,e),y:Q(t.y,n.y,r.y,e)};return i&&(u.a=Z(t,n,r,e)),u}function Z(t,n,r,e){return Math.atan2(U(t.y,n.y,r.y,e),U(t.x,n.x,r.x,e))}function J(t,n,r,e,i){var u=i*i;return i*u*(e-t+3*(n-r))+3*u*(t+r-2*n)+3*i*(n-t)+t}function K(t,n,r,e,i){var u=1-i;return 3*(u*u*(n-t)+2*u*i*(r-n)+i*i*(e-r))}function W(t,n,r,e,i){var u=arguments.length>5&&void 0!==arguments[5]&&arguments[5],o={x:J(t.x,n.x,r.x,e.x,i),y:J(t.y,n.y,r.y,e.y,i)};return u&&(o.a=X(t,n,r,e,i)),o}function X(t,n,r,e,i){return Math.atan2(K(t.y,n.y,r.y,e.y,i),K(t.x,n.x,r.x,e.x,i))}function tt(t,n,r){var e=arguments.length>3&&void 0!==arguments[3]&&arguments[3];if(rt(n)){if(et(r))return Y(n,r.start,r,t,e)}else if(rt(r)){if(n.end)return Y(n,n.end,r,t,e)}else{if(n.end)return r.start?W(n,n.end,r.start,r,t,e):Y(n,n.end,r,t,e);if(r.start)return Y(n,r.start,r,t,e)}return $(n,r,t,e)}function nt(t,n,r){var e=tt(t,n,r,!0);return e.a=function(t){var n=arguments.length>1&&void 0!==arguments[1]&&arguments[1];return n?t+Math.PI:t}(e.a)/v,e}function rt(t){return!t.type||"corner"===t.type}function et(t){return null!=t.start&&!rt(t)}var it=new V;var ut={f:function(t){return t?t.join(" "):""},i:function(n,r,e){if(0===n)return r;if(1===n)return e;var i=r.length;if(i!==e.length)return h(n,r,e);for(var u,o=new Array(i),a=0;a<i;a++){if((u=t(r[a]))!==t(e[a]))return h(n,r,e);if("number"===u)o[a]=y(n,r[a],e[a]);else{if(r[a]!==e[a])return h(n,r,e);o[a]=r[a]}}return o}},ot={f:null,i:A,u:function(t,n){return function(r){var e=n(r);t.setAttribute("x1",_(e[0])),t.setAttribute("y1",_(e[1])),t.setAttribute("x2",_(e[2])),t.setAttribute("y2",_(e[3]))}}},at={f:_,i:y},lt={f:_,i:function(t,n,r){var e=y(t,n,r);return e<=0?0:e>=1?1:e}},ft={f:M,i:function(t,n,r){var e,i,u,o=n.length,a=r.length;if(o!==a)if(0===o)n=x(o=a,0);else if(0===a)a=o,r=x(o,0);else{var l=(u=(e=o)*(i=a)/function(t,n){for(var r;n;)r=n,n=t%n,t=r;return t||1}(e,i))<0?-u:u;n=k(n,Math.floor(l/o)),r=k(r,Math.floor(l/a)),o=a=l}for(var f=[],s=0;s<o;s++)f.push(c(d(t,n[s],r[s]),6));return f}};function st(t,n,r,e,i,u,o,a){return n=function(t,n,r){for(var e,i,u,o=t.length-1,a={},l=0;l<=o;l++)(e=t[l]).e&&(e.e=n(e.e)),e.v&&"g"===(i=e.v).t&&i.r&&(u=r.getElementById(i.r))&&(a[i.r]=u.querySelectorAll("stop"));return a}(t,e,a),function(e){var i,u=r(e,t,ct);return u?"c"===u.t?E(u.v):"g"===u.t?(n[u.r]&&function(t,n){for(var r=0,e=t.length;r<e;r++)t[r].setAttribute("stop-color",E(n[r]))}(n[u.r],u.v),(i=u.r)?"url(#"+i+")":"none"):"none":"none"}}function ct(t,n,r){if(0===t)return n;if(1===t)return r;if(n&&r){var e=n.t;if(e===r.t)switch(n.t){case"c":return{t:e,v:b(t,n.v,r.v)};case"g":if(n.r===r.r)return{t:e,v:w(t,n.v,r.v),r:n.r}}}return h(t,n,r)}var vt={blur:m,brightness:d,contrast:d,"drop-shadow":function(t,n,r){return 0===t?n:1===t?r:{blur:m(t,n.blur,r.blur),offset:g(t,n.offset,r.offset),color:b(t,n.color,r.color)}},grayscale:d,"hue-rotate":y,invert:d,opacity:d,saturate:d,sepia:d};function ht(t,n,r){if(0===t)return n;if(1===t)return r;var e=n.length;if(e!==r.length)return h(t,n,r);for(var i,u=[],o=0;o<e;o++){if(n[o].type!==r[o].type)return n;if(!(i=vt[n[o].type]))return h(t,n,r);u.push({type:n.type,value:i(t,n[o].value,r[o].value)})}return u}var yt={blur:function(t){return t?function(n){t.setAttribute("stdDeviation",I(n))}:null},brightness:function(t,n,r){return(t=gt(r,n))?function(n){n=_(n),t.map((function(t){return t.setAttribute("slope",n)}))}:null},contrast:function(t,n,r){return(t=gt(r,n))?function(n){var r=_((1-n)/2);n=_(n),t.map((function(t){t.setAttribute("slope",n),t.setAttribute("intercept",r)}))}:null},"drop-shadow":function(t,n,r){var e=r.getElementById(n+"-blur");if(!e)return null;var i=r.getElementById(n+"-offset");if(!i)return null;var u=r.getElementById(n+"-flood");return u?function(t){e.setAttribute("stdDeviation",I(t.blur)),i.setAttribute("dx",_(t.offset.x)),i.setAttribute("dy",_(t.offset.y)),u.setAttribute("flood-color",E(t.color))}:null},grayscale:function(t){return t?function(n){t.setAttribute("values",M(function(t){return[.2126+.7874*(t=1-t),.7152-.7152*t,.0722-.0722*t,0,0,.2126-.2126*t,.7152+.2848*t,.0722-.0722*t,0,0,.2126-.2126*t,.7152-.7152*t,.0722+.9278*t,0,0,0,0,0,1,0]}(n)))}:null},"hue-rotate":function(t){return t?function(n){return t.setAttribute("values",_(n))}:null},invert:function(t,n,r){return(t=gt(r,n))?function(n){n=_(n)+" "+_(1-n),t.map((function(t){return t.setAttribute("tableValues",n)}))}:null},opacity:function(t,n,r){return(t=r.getElementById(n+"-A"))?function(n){return t.setAttribute("tableValues","0 "+_(n))}:null},saturate:function(t){return t?function(n){return t.setAttribute("values",_(n))}:null},sepia:function(t){return t?function(n){return t.setAttribute("values",M(function(t){return[.393+.607*(t=1-t),.769-.769*t,.189-.189*t,0,0,.349-.349*t,.686+.314*t,.168-.168*t,0,0,.272-.272*t,.534-.534*t,.131+.869*t,0,0,0,0,0,1,0]}(n)))}:null}};var dt=["R","G","B"];function gt(t,n){var r=dt.map((function(r){return t.getElementById(n+"-"+r)||null}));return-1!==r.indexOf(null)?null:r}var mt={fill:st,"fill-opacity":lt,stroke:st,"stroke-opacity":lt,"stroke-width":at,"stroke-dashoffset":{f:_,i:y},"stroke-dasharray":ft,opacity:lt,transform:function(n,r,e,i){if(!(n=function(n,r){if(!n||"object"!==t(n))return null;var e=!1;for(var i in n)n.hasOwnProperty(i)&&(n[i]&&n[i].length?(n[i].forEach((function(t){t.e&&(t.e=r(t.e))})),e=!0):delete n[i]);return e?n:null}(n,i)))return null;var u=function(t,i,u){var o=arguments.length>3&&void 0!==arguments[3]?arguments[3]:null;return n[t]?e(i,n[t],u):r&&r[t]?r[t]:o};return r&&r.a&&n.o?function(t){var r=e(t,n.o,nt);return it.recomposeSelf(r,u("r",t,y,0)+r.a,u("k",t,g),u("s",t,g),u("t",t,g)).toString()}:function(t){return it.recomposeSelf(u("o",t,tt,null),u("r",t,y,0),u("k",t,g),u("s",t,g),u("t",t,g)).toString()}},"#filter":function(t,n,r,e,i,u,o,a){if(!n.items||!t||!t.length)return null;var l=function(t,n){var r=(t=t.map((function(t){return t&&yt[t[0]]?(n.getElementById(t[1]),yt[t[0]](n.getElementById(t[1]),t[1],n)):null}))).length;return function(n){for(var e=0;e<r;e++)t[e]&&t[e](n[e].value)}}(n.items,a);return l?(t=function(t,n){return t.map((function(t){return t.e=n(t.e),t}))}(t,e),function(n){l(r(n,t,ht))}):null},"#line":ot,points:{f:M,i:A},d:ut,r:at,"#size":B,"#radius":F,_:function(t,n){if(Array.isArray(t))for(var r=0;r<t.length;r++)this[t[r]]=n;else this[t]=n}},pt=function(){function t(r){n(this,t),this.list=r,this.length=r.length}return e(t,[{key:"setAttribute",value:function(t,n){for(var r=this.list,e=0;e<this.length;e++)r[e].setAttribute(t,n)}},{key:"removeAttribute",value:function(t){for(var n=this.list,r=0;r<this.length;r++)n[r].removeAttribute(t)}},{key:"style",value:function(t,n){for(var r=this.list,e=0;e<this.length;e++)r[e].style[t]=n}}]),t}(),bt=/-./g,wt=function(t,n){return n.toUpperCase()};function At(t){return"function"==typeof t?t:h}function xt(t){return t?"function"==typeof t?t:Array.isArray(t)?function(t){var n=arguments.length>1&&void 0!==arguments[1]?arguments[1]:u;if(!Array.isArray(t))return n;switch(t.length){case 1:return s(t[0])||n;case 2:return s(t[0],t[1])||n;case 4:return a(t[0],t[1],t[2],t[3])||n}return n}(t,null):function(t,n){var r=arguments.length>2&&void 0!==arguments[2]?arguments[2]:u;switch(t){case"linear":return u;case"steps":return s(n.steps||1,n.jump||0)||r;case"bezier":case"cubic-bezier":return a(n.x1||0,n.y1||0,n.x2||0,n.y2||0)||r}return r}(t.type,t.value,null):null}function kt(t,n,r){var e=arguments.length>3&&void 0!==arguments[3]&&arguments[3],i=n.length-1;if(t<=n[0].t)return e?[0,0,n[0].v]:n[0].v;if(t>=n[i].t)return e?[i,1,n[i].v]:n[i].v;var u,o=n[0],a=null;for(u=1;u<=i;u++){if(!(t>n[u].t)){a=n[u];break}o=n[u]}return null==a?e?[i,1,n[i].v]:n[i].v:o.t===a.t?e?[u,1,a.v]:a.v:(t=(t-o.t)/(a.t-o.t),o.e&&(t=o.e(t)),e?[u,t,r(t,o.v,a.v)]:r(t,o.v,a.v))}function St(t,n){var r=arguments.length>2&&void 0!==arguments[2]?arguments[2]:null;return t&&t.length?"function"!=typeof n?null:("function"!=typeof r&&(r=null),function(e){var i=kt(e,t,n);return null!=i&&r&&(i=r(i)),i}):null}function _t(t,n){return t.t-n.t}function Mt(n,r,e,i,u){var o,a="@"===e[0],l="#"===e[0],f=mt[e],s=h;switch(a?(o=e.substr(1),e=o.replace(bt,wt)):l&&(e=e.substr(1)),t(f)){case"function":if(s=f(i,u,kt,xt,e,a,r,n),l)return s;break;case"string":s=St(i,At(f));break;case"object":if((s=St(i,At(f.i),f.f))&&"function"==typeof f.u)return f.u(r,s,e,a,n)}return s?function(t,n,r){var e=arguments.length>3&&void 0!==arguments[3]&&arguments[3];if(e)return t instanceof pt?function(e){return t.style(n,r(e))}:function(e){return t.style[n]=r(e)};if(Array.isArray(n)){var i=n.length;return function(e){var u=r(e);if(null==u)for(var o=0;o<i;o++)t[o].removeAttribute(n);else for(var a=0;a<i;a++)t[a].setAttribute(n,u)}}return function(e){var i=r(e);null==i?t.removeAttribute(n):t.setAttribute(n,i)}}(r,e,s,a):null}function It(n,r,e,i){if(!i||"object"!==t(i))return null;var u=null,o=null;return Array.isArray(i)?o=function(t){if(!t||!t.length)return null;for(var n=0;n<t.length;n++)t[n].e&&(t[n].e=xt(t[n].e));return t.sort(_t)}(i):(o=i.keys,u=i.data||null),o?Mt(n,r,e,o,u):null}function Et(t,n,r){if(!r)return null;var e=[];for(var i in r)if(r.hasOwnProperty(i)){var u=It(t,n,i,r[i]);u&&e.push(u)}return e.length?e:null}function Ft(t,n){if(!n.duration||n.duration<0)return null;var r=function(t,n){if(!n)return null;var r=[];if(Array.isArray(n))for(var e=n.length,i=0;i<e;i++){var u=n[i];if(2===u.length){var o=null;if("string"==typeof u[0])o=t.getElementById(u[0]);else if(Array.isArray(u[0])){o=[];for(var a=0;a<u[0].length;a++)if("string"==typeof u[0][a]){var l=t.getElementById(u[0][a]);l&&o.push(l)}o=o.length?1===o.length?o[0]:new pt(o):null}if(o){var f=Et(t,o,u[1]);f&&(r=r.concat(f))}}}else for(var s in n)if(n.hasOwnProperty(s)){var c=t.getElementById(s);if(c){var v=Et(t,c,n[s]);v&&(r=r.concat(v))}}return r.length?r:null}(t,n.elements);return r?function(t,n){var r=arguments.length>2&&void 0!==arguments[2]?arguments[2]:1/0,e=arguments.length>3&&void 0!==arguments[3]?arguments[3]:1,i=arguments.length>4&&void 0!==arguments[4]&&arguments[4],u=arguments.length>5&&void 0!==arguments[5]?arguments[5]:1,o=t.length,a=e>0?n:0;i&&r%2==0&&(a=n-a);var l=null;return function(f,s){var c=f%n,v=1+(f-c)/n;s*=e,i&&v%2==0&&(s=-s);var h=!1;if(v>r)c=a,h=!0,-1===u&&(c=e>0?0:n);else if(s<0&&(c=n-c),c===l)return!1;l=c;for(var y=0;y<o;y++)t[y](c);return h}}(r,n.duration,n.iterations||1/0,n.direction||1,!!n.alternate,n.fill||1):null}var Bt=function(){function t(r){var e=arguments.length>1&&void 0!==arguments[1]?arguments[1]:{};n(this,t),this._id=0,this._running=!1,this._animations=r,this.direction=e.direction||1,this.speed=e.speed||1,this.fps=e.fps||100,this.offset=e.offset||0}return e(t,[{key:"_start",value:function(){var t=this,n=arguments.length>0&&void 0!==arguments[0]?arguments[0]:0,r=-1/0,e=null,i={},u=function u(o){t._running=!0,null==e&&(e=o);var a=Math.round((o-e+n)*t.speed),l=t.fps?1e3/t.fps:0;if(a>r+l){t.offset=a,r=a;for(var f=t._animations,s=f.length,c=0,v=0;v<s;v++)i[v]?c++:(i[v]=f[v](a,t.direction),i[v]&&c++);if(c===s)return void t._stop()}t._id=window.requestAnimationFrame(u)};this._id=window.requestAnimationFrame(u)}},{key:"_stop",value:function(){this._id&&window.cancelAnimationFrame(this._id),this._running=!1}},{key:"play",value:function(){this._running||this._start(this.offset)}},{key:"stop",value:function(){this._stop(),this.offset=0;var t=this.direction,n=this._animations;requestAnimationFrame((function(){for(var r=0;r<n.length;r++)n[r](0,t)}))}},{key:"restart",value:function(){this._stop(),this.offset=0,this._start()}},{key:"pause",value:function(){this._stop()}},{key:"reverse",value:function(){this.direction=-this.direction}}],[{key:"build",value:function(n){if(!(n=function(t){if(!t||!t.root||!Array.isArray(t.animations))return null;var n=window.document.getElementById(t.root);if(!n)return null;var r=t.animations.map((function(t){return Ft(n,t)})).filter((function(t){return!!t}));return r.length?{element:n,animations:r,options:t.options||void 0}:null}(n)))return null;var r=n.element,e=n.options||{},i=new t(n.animations,n.options);return function(t,n,r){var e=arguments.length>3&&void 0!==arguments[3]?arguments[3]:null;if("click"===r){var i=function r(){n.removeEventListener("click",r),t.play()};return void n.addEventListener("click",i)}if("hover"===r)return n.addEventListener("mouseenter",(function(){return t.play()})),void n.addEventListener("mouseleave","freeze"===e?function(){return t.pause()}:function(){return t.stop()});t.play()}(i,r,e.start,e.hover),i}}]),t}();return function(){for(var t=0,n=["ms","moz","webkit","o"],r=0;r<n.length&&!window.requestAnimationFrame;++r)window.requestAnimationFrame=window[n[r]+"RequestAnimationFrame"],window.cancelAnimationFrame=window[n[r]+"CancelAnimationFrame"]||window[n[r]+"CancelRequestAnimationFrame"];window.requestAnimationFrame||(window.requestAnimationFrame=function(n){var r=Date.now(),e=Math.max(0,16-(r-t)),i=window.setTimeout((function(){n(r+e)}),e);return t=r+e,i},window.cancelAnimationFrame=window.clearTimeout)}(),Bt}));
__SVGATOR_PLAYER__.build({"root":"ebterf2zo7qm1","animations":[{"duration":3200,"direction":1,"iterations":1,"fill":1,"alternate":false,"elements":{"ebterf2zo7qm2":{"transform":{"data":{"s":{"x":0.2,"y":0.2},"t":{"x":-4.108198325001219,"y":-4.076000024996914}},"keys":{"o":[{"t":0,"v":{"x":-8.587431999999998,"y":517.288425,"type":"corner"}},{"t":200,"v":{"x":95.917355,"y":343.561983,"type":"corner"}},{"t":400,"v":{"x":126.495868,"y":275.066116,"type":"corner"}},{"t":600,"v":{"x":181.53719,"y":232.256198,"type":"corner"}},{"t":800,"v":{"x":246.363636,"y":275.066116,"type":"corner"}},{"t":1060,"v":{"x":240.247934,"y":396.157025,"type":"corner"}},{"t":3200,"v":{"x":233.92518328499978,"y":385.19530491500046,"type":"corner"}}]}}},"ebterf2zo7qm27":{"transform":{"data":{"s":{"x":0.2,"y":0.2}},"keys":{"o":[{"t":1000,"v":{"x":539.917355,"y":416.950413,"type":"corner"}},{"t":1200,"v":{"x":470.38835,"y":263.634304,"type":"corner"}},{"t":1400,"v":{"x":361.52034108,"y":195.34799962,"type":"corner"}},{"t":1600,"v":{"x":275.57478562,"y":224.23877832,"type":"corner"}},{"t":1800,"v":{"x":239.39381114,"y":290.611687,"type":"corner"}},{"t":1960,"v":{"x":227.03073044499916,"y":393.47668553499983,"type":"corner"}}]}}},"ebterf2zo7qm40":{"transform":{"data":{"s":{"x":0.2,"y":0.2}},"keys":{"o":[{"t":1800,"v":{"x":-12.297342999999998,"y":481.66989800000005,"type":"corner"}},{"t":1900,"v":{"x":-15.240979000000003,"y":474.31080950000006,"type":"corner"}},{"t":2000,"v":{"x":17.381952,"y":425.243474,"type":"corner"}},{"t":2200,"v":{"x":63.268608,"y":349.847896,"type":"corner"}},{"t":2400,"v":{"x":106.92562,"y":268.950413,"type":"corner"}},{"t":2600,"v":{"x":158.297521,"y":223.694215,"type":"corner"}},{"t":2800,"v":{"x":213.338843,"y":259.165289,"type":"corner"}},{"t":3000,"v":{"x":235.355372,"y":321.545455,"type":"corner"}},{"t":3200,"v":{"x":232.69743104999992,"y":378.1784449149992,"type":"corner"}}]}}}}}],"options":{"start":"load","hover":"freeze"}})]]></script></svg>